# Blender 3.4.1
# www.blender.org
o Cube
v -12.020927 -2.435388 12.020927
v -12.144396 1.301226 12.144396
v -12.020927 -2.435387 -12.020927
v -12.144396 1.301227 -12.144396
v 12.020927 -2.435388 12.020927
v 12.144396 1.301226 12.144396
v 12.020927 -2.435387 -12.020927
v 12.144396 1.301227 -12.144396
v -16.151373 -1.605030 -16.151373
v -16.151373 -1.605031 16.151373
v 16.151373 -1.605030 -16.151373
v 16.151373 -1.605031 16.151373
v -20.693949 -1.605030 -8.832781
v -22.208138 -1.605031 -0.000000
v -20.693949 -1.605031 8.832781
v -16.088491 -0.859243 16.088482
v -15.493958 0.001874 15.493958
v -14.001879 0.787941 14.001879
v -13.915848 1.482913 7.205270
v -14.805671 1.574174 -0.000000
v -13.915848 1.482913 -7.205270
v -14.001879 0.787943 -14.001879
v -15.493958 0.001875 -15.493958
v -16.088491 -0.859241 -16.088491
v 8.832781 -1.605030 -20.693949
v -0.000000 -1.605030 -22.208138
v -8.832781 -1.605030 -20.693949
v -7.205270 1.482914 -13.915848
v -0.000000 1.574174 -14.805671
v 7.205270 1.482914 -13.915848
v 14.001879 0.787943 -14.001879
v 15.493958 0.001875 -15.493958
v 16.088491 -0.859241 -16.088491
v 20.693949 -1.605031 8.832781
v 22.208138 -1.605031 -0.000000
v 20.693949 -1.605030 -8.832781
v 13.915848 1.482913 -7.205270
v 14.805671 1.574174 -0.000000
v 13.915848 1.482913 7.205270
v 14.001879 0.787941 14.001879
v 15.493958 0.001874 15.493958
v 16.088491 -0.859243 16.088491
v -8.832781 -1.605032 20.693949
v -0.000000 -1.605032 22.208138
v 8.832781 -1.605032 20.693949
v 7.205270 1.482912 13.915848
v -0.000000 1.574173 14.805671
v -7.205270 1.482912 13.915848
v -13.766350 -2.435387 -7.130435
v -14.642464 -2.435388 -0.000000
v -13.766350 -2.435388 7.130434
v 7.130435 -2.435387 -13.766350
v -0.000000 -2.435387 -14.642472
v -7.130435 -2.435387 -13.766350
v 13.766350 -2.435388 7.130434
v 14.642472 -2.435388 -0.000000
v 13.766350 -2.435387 -7.130435
v -7.130435 -2.435388 13.766350
v -0.000000 -2.435388 14.642472
v 7.130435 -2.435388 13.766350
v -16.029089 -2.085079 -16.029089
v -15.389202 -2.331589 -15.389202
v -13.876897 -2.422415 -13.876889
v -13.876889 -2.422416 13.876897
v -15.389202 -2.331591 15.389202
v -16.029089 -2.085080 16.029089
v 16.029089 -2.085079 -16.029089
v 15.389202 -2.331589 -15.389202
v 13.876889 -2.422415 -13.876897
v 16.029089 -2.085080 16.029089
v 15.389202 -2.331591 15.389202
v 13.876897 -2.422416 13.876889
v -20.614618 -0.857559 8.798060
v -19.861580 0.015324 8.470622
v -17.815275 0.838217 7.726453
v -22.123720 -0.855881 -0.000000
v -21.320585 0.028782 -0.000000
v -19.105923 0.882206 -0.000000
v -20.614618 -0.857558 -8.798060
v -19.861588 0.015325 -8.470622
v -17.815269 0.838218 -7.726453
v -8.798060 -0.857557 -20.614618
v -8.470622 0.015326 -19.861580
v -7.726453 0.838218 -17.815275
v -0.000000 -0.855880 -22.123720
v -0.000000 0.028782 -21.320585
v -0.000000 0.882207 -19.105923
v 8.798060 -0.857557 -20.614618
v 8.470622 0.015326 -19.861588
v 7.726453 0.838218 -17.815269
v 20.614618 -0.857558 -8.798060
v 19.861580 0.015325 -8.470622
v 17.815275 0.838218 -7.726453
v 22.123720 -0.855881 -0.000000
v 21.320585 0.028782 -0.000000
v 19.105923 0.882206 -0.000000
v 20.614618 -0.857559 8.798060
v 19.861588 0.015324 8.470622
v 17.815269 0.838217 7.726453
v 8.798060 -0.857559 20.614618
v 8.470622 0.015324 19.861580
v 7.726453 0.838217 17.815275
v -0.000000 -0.855882 22.123720
v -0.000000 0.028781 21.320585
v -0.000000 0.882206 19.105923
v -8.798060 -0.857559 20.614618
v -8.470622 0.015324 19.861588
v -7.726453 0.838217 17.815269
v -7.590733 -2.435387 -7.590733
v -0.000000 -2.435387 -7.995297
v 7.590733 -2.435387 -7.590733
v -7.995297 -2.435388 -0.000000
v -0.000000 -2.435388 -0.000000
v 7.995297 -2.435388 -0.000000
v -7.590733 -2.435388 7.590733
v -0.000000 -2.435388 7.995297
v 7.590726 -2.435388 7.590733
v 7.679074 1.871659 -7.679074
v -0.000000 2.003284 -8.091581
v -7.679074 1.871659 -7.679074
v 8.091581 2.003284 -0.000000
v -0.000000 2.146967 -0.000000
v -8.091581 2.003284 -0.000000
v 7.679074 1.871659 7.679074
v -0.000000 2.003283 8.091581
v -7.679074 1.871659 7.679074
v -17.651569 -2.422415 -7.658318
v -18.927612 -2.422415 -0.000000
v -17.651569 -2.422415 7.658318
v -19.725624 -2.331590 -8.413796
v -21.173676 -2.331590 -0.000000
v -19.725624 -2.331591 8.413796
v -20.538300 -2.085079 -8.765638
v -22.041693 -2.085080 -0.000000
v -20.538300 -2.085080 8.765638
v 7.658318 -2.422415 -17.651569
v -0.000000 -2.422415 -18.927612
v -7.658318 -2.422415 -17.651569
v 8.413796 -2.331589 -19.725624
v -0.000000 -2.331589 -21.173676
v -8.413796 -2.331589 -19.725624
v 8.765638 -2.085079 -20.538300
v -0.000000 -2.085079 -22.041693
v -8.765638 -2.085079 -20.538300
v 17.651569 -2.422415 7.658318
v 18.927612 -2.422415 -0.000000
v 17.651569 -2.422415 -7.658318
v 19.725624 -2.331591 8.413796
v 21.173676 -2.331590 -0.000000
v 19.725624 -2.331590 -8.413796
v 20.538300 -2.085080 8.765638
v 22.041693 -2.085080 -0.000000
v 20.538300 -2.085079 -8.765638
v -7.658318 -2.422416 17.651569
v -0.000000 -2.422416 18.927612
v 7.658318 -2.422416 17.651569
v -8.413796 -2.331591 19.725624
v -0.000000 -2.331591 21.173676
v 8.413796 -2.331591 19.725624
v -8.765638 -2.085081 20.538300
v -0.000000 -2.085081 22.041693
v 8.765638 -2.085081 20.538300
vn -0.5370 0.8188 0.2031
vn -0.9163 0.4005 -0.0000
vn -0.8534 0.4074 0.3252
vn -0.2548 0.9620 0.0980
vn -0.5812 0.8137 -0.0000
vn -0.5370 0.8188 -0.2031
vn -0.8534 0.4074 -0.3252
vn -0.2548 0.9620 -0.0980
vn -0.6436 0.4142 0.6436
vn -0.9290 -0.1088 0.3538
vn -0.7028 -0.1097 0.7028
vn -0.4013 0.8233 0.4013
vn -0.2003 0.9590 0.2003
vn -0.1071 0.9885 0.1071
vn -0.1151 0.9934 -0.0000
vn -0.2707 0.9627 -0.0000
vn -0.1071 0.9885 -0.1071
vn -0.2003 0.9590 -0.2003
vn -0.4013 0.8233 -0.4013
vn -0.6436 0.4142 -0.6436
vn -0.9290 -0.1088 -0.3538
vn -0.7028 -0.1097 -0.7028
vn -0.9942 -0.1080 -0.0000
vn -0.2031 0.8188 -0.5370
vn -0.0000 0.4005 -0.9163
vn -0.3252 0.4074 -0.8534
vn -0.0980 0.9620 -0.2548
vn -0.0000 0.8137 -0.5812
vn 0.2031 0.8188 -0.5370
vn 0.3252 0.4074 -0.8534
vn 0.0980 0.9620 -0.2548
vn -0.3538 -0.1088 -0.9290
vn -0.0000 0.9934 -0.1151
vn -0.0000 0.9627 -0.2707
vn 0.1071 0.9885 -0.1071
vn 0.2003 0.9590 -0.2003
vn 0.4013 0.8233 -0.4013
vn 0.6436 0.4142 -0.6436
vn 0.3538 -0.1088 -0.9290
vn 0.7028 -0.1097 -0.7028
vn -0.0000 -0.1080 -0.9942
vn 0.5370 0.8188 -0.2031
vn 0.9163 0.4005 -0.0000
vn 0.8534 0.4074 -0.3252
vn 0.2548 0.9620 -0.0980
vn 0.5812 0.8137 -0.0000
vn 0.5370 0.8188 0.2031
vn 0.8534 0.4074 0.3252
vn 0.2548 0.9620 0.0980
vn 0.9290 -0.1088 -0.3538
vn 0.1151 0.9934 -0.0000
vn 0.2707 0.9627 -0.0000
vn 0.1071 0.9885 0.1071
vn 0.2003 0.9590 0.2003
vn 0.4013 0.8233 0.4013
vn 0.6436 0.4142 0.6436
vn 0.9290 -0.1088 0.3538
vn 0.7028 -0.1097 0.7028
vn 0.9942 -0.1080 -0.0000
vn 0.2031 0.8188 0.5370
vn -0.0000 0.4005 0.9163
vn 0.3252 0.4074 0.8534
vn 0.0980 0.9620 0.2548
vn -0.0000 0.8137 0.5812
vn -0.2031 0.8188 0.5370
vn -0.3252 0.4074 0.8534
vn -0.0980 0.9620 0.2548
vn 0.3538 -0.1088 0.9290
vn -0.0000 0.9934 0.1151
vn -0.0000 0.9627 0.2707
vn -0.3538 -0.1088 0.9290
vn -0.0000 -0.1080 0.9942
vn -0.0000 -1.0000 -0.0000
vn -0.0020 -1.0000 -0.0020
vn -0.0017 -1.0000 -0.0004
vn -0.0004 -1.0000 -0.0017
vn 0.0004 -1.0000 -0.0017
vn -0.0000 -1.0000 -0.0017
vn 0.0020 -1.0000 -0.0020
vn 0.0017 -1.0000 -0.0004
vn 0.0017 -1.0000 0.0004
vn 0.0020 -1.0000 0.0020
vn 0.0004 -1.0000 0.0017
vn -0.0000 -1.0000 0.0017
vn -0.0004 -1.0000 0.0017
vn -0.0020 -1.0000 0.0020
vn -0.0017 -1.0000 0.0004
vn -0.0017 -1.0000 -0.0000
vn 0.0416 0.9983 -0.0416
vn -0.0000 1.0000 -0.0000
vn 0.0415 0.9991 -0.0000
vn -0.0416 0.9983 -0.0416
vn -0.0000 0.9991 -0.0415
vn 0.0416 0.9983 0.0416
vn -0.0416 0.9983 0.0416
vn -0.0000 0.9991 0.0415
vn 0.1130 0.9923 -0.0506
vn 0.0506 0.9923 -0.1130
vn -0.0506 0.9923 -0.1130
vn -0.1130 0.9923 -0.0506
vn -0.0415 0.9991 -0.0000
vn -0.1130 0.9923 0.0506
vn -0.0506 0.9923 0.1130
vn 0.0506 0.9923 0.1130
vn 0.1130 0.9923 0.0506
vn -0.0230 -0.9997 -0.0085
vn -0.1704 -0.9854 -0.0000
vn -0.1590 -0.9855 -0.0592
vn -0.0230 -0.9997 0.0085
vn -0.0237 -0.9997 -0.0000
vn -0.7113 -0.7029 -0.0000
vn -0.6648 -0.7033 -0.2518
vn -0.1590 -0.9855 0.0592
vn -0.0187 -0.9997 -0.0187
vn -0.0187 -0.9997 0.0187
vn -0.1198 -0.9855 0.1198
vn -0.6648 -0.7033 0.2518
vn -0.5032 -0.7026 0.5032
vn -0.5032 -0.7026 -0.5032
vn -0.1198 -0.9855 -0.1198
vn 0.0085 -0.9997 -0.0230
vn -0.0000 -0.9854 -0.1704
vn 0.0592 -0.9855 -0.1590
vn -0.0085 -0.9997 -0.0230
vn -0.0000 -0.9997 -0.0237
vn -0.0000 -0.7029 -0.7113
vn 0.2518 -0.7033 -0.6648
vn -0.0592 -0.9855 -0.1590
vn 0.0187 -0.9997 -0.0187
vn -0.2518 -0.7033 -0.6648
vn 0.5032 -0.7026 -0.5032
vn 0.1198 -0.9855 -0.1198
vn 0.0230 -0.9997 0.0085
vn 0.1704 -0.9854 -0.0000
vn 0.1590 -0.9855 0.0592
vn 0.0230 -0.9997 -0.0085
vn 0.0237 -0.9997 -0.0000
vn 0.7113 -0.7029 -0.0000
vn 0.6648 -0.7033 0.2518
vn 0.1590 -0.9855 -0.0592
vn 0.0187 -0.9997 0.0187
vn 0.0017 -1.0000 -0.0000
vn 0.6648 -0.7033 -0.2518
vn 0.5032 -0.7026 0.5032
vn 0.1198 -0.9855 0.1198
vn -0.0085 -0.9997 0.0230
vn -0.0000 -0.9854 0.1704
vn -0.0592 -0.9855 0.1590
vn 0.0085 -0.9997 0.0230
vn -0.0000 -0.9997 0.0237
vn -0.0000 -0.7029 0.7113
vn -0.2518 -0.7033 0.6648
vn 0.0592 -0.9855 0.1590
vn 0.2518 -0.7033 0.6648
vt 0.246094 0.449584
vt 0.246094 0.449584
vt 0.246094 0.449584
vt 0.246094 0.449584
vt 0.246094 0.449584
vt 0.246094 0.449584
vt 0.246094 0.449584
vt 0.246094 0.449584
vt 0.246094 0.449584
vt 0.246094 0.449584
vt 0.246094 0.449584
vt 0.246094 0.449584
vt 0.246094 0.449584
vt 0.246094 0.449584
vt 0.246094 0.449584
vt 0.246094 0.449584
vt 0.246094 0.449584
vt 0.246094 0.449584
vt 0.246094 0.449584
vt 0.246094 0.449584
vt 0.246094 0.449584
vt 0.246094 0.449584
vt 0.246094 0.449584
vt 0.246094 0.449584
vt 0.246094 0.449584
vt 0.246094 0.449584
vt 0.246094 0.449584
vt 0.246094 0.449584
vt 0.246094 0.449584
vt 0.246094 0.449584
vt 0.246094 0.449584
vt 0.246094 0.449584
vt 0.246094 0.449584
vt 0.246094 0.449584
vt 0.246094 0.449584
vt 0.246094 0.449584
vt 0.246094 0.449584
vt 0.246094 0.449584
vt 0.246094 0.449584
vt 0.246094 0.449584
vt 0.246094 0.449584
vt 0.246094 0.449584
vt 0.246094 0.449584
vt 0.246094 0.449584
vt 0.246094 0.449584
vt 0.246094 0.449584
vt 0.246094 0.449584
vt 0.246094 0.449584
vt 0.246094 0.449584
vt 0.246094 0.449584
vt 0.246094 0.449584
vt 0.246094 0.449584
vt 0.246094 0.449584
vt 0.246094 0.449584
vt 0.246094 0.449584
vt 0.246094 0.449584
vt 0.246094 0.449584
vt 0.246094 0.449584
vt 0.246094 0.449584
vt 0.246094 0.449584
vt 0.246094 0.449584
vt 0.246094 0.449584
vt 0.246094 0.449584
vt 0.246094 0.449584
vt 0.246094 0.449584
vt 0.246094 0.449584
vt 0.246094 0.449584
vt 0.246094 0.449584
vt 0.246094 0.449584
vt 0.246094 0.449584
vt 0.246094 0.449584
vt 0.246094 0.449584
vt 0.246094 0.449584
vt 0.246094 0.449584
vt 0.246094 0.449584
vt 0.246094 0.449584
vt 0.246094 0.449584
vt 0.246094 0.449584
vt 0.246094 0.449584
vt 0.246094 0.449584
vt 0.246094 0.449584
vt 0.246094 0.449584
vt 0.246094 0.449584
vt 0.246094 0.449584
vt 0.246094 0.449584
vt 0.246094 0.449584
vt 0.246094 0.449584
vt 0.246094 0.449584
vt 0.246094 0.449584
vt 0.246094 0.449584
vt 0.246094 0.449584
vt 0.246094 0.449584
vt 0.246094 0.449584
vt 0.246094 0.449584
vt 0.246094 0.449584
vt 0.246094 0.449584
vt 0.246094 0.449584
vt 0.246094 0.449584
vt 0.246094 0.449584
vt 0.246094 0.449584
vt 0.246094 0.449584
vt 0.246094 0.449584
vt 0.246094 0.449584
vt 0.246094 0.449584
vt 0.246094 0.449584
vt 0.246094 0.449584
vt 0.246094 0.449584
vt 0.246094 0.449584
vt 0.246094 0.449584
vt 0.246094 0.449584
vt 0.246094 0.449584
vt 0.246094 0.449584
vt 0.246094 0.449584
vt 0.246094 0.449584
vt 0.246094 0.449584
vt 0.246094 0.449584
vt 0.246094 0.449584
vt 0.246094 0.449584
vt 0.246094 0.449584
vt 0.246094 0.449584
vt 0.246094 0.449584
vt 0.246094 0.449584
vt 0.246094 0.449584
vt 0.246094 0.449584
vt 0.246094 0.449584
vt 0.246094 0.449584
vt 0.246094 0.449584
vt 0.246094 0.449584
vt 0.246094 0.449584
vt 0.246094 0.449584
vt 0.246094 0.449584
vt 0.246094 0.449584
vt 0.246094 0.449584
vt 0.246094 0.449584
vt 0.246094 0.449584
vt 0.246094 0.449584
vt 0.246094 0.449584
vt 0.246094 0.449584
vt 0.246094 0.449584
vt 0.246094 0.449584
vt 0.246094 0.449584
vt 0.246094 0.449584
vt 0.246094 0.449584
vt 0.246094 0.449584
vt 0.246094 0.449584
vt 0.246094 0.449584
vt 0.246094 0.449584
vt 0.246094 0.449584
vt 0.246094 0.449584
vt 0.246094 0.449584
vt 0.246094 0.449584
vt 0.246094 0.449584
vt 0.246094 0.449584
vt 0.246094 0.449584
vt 0.246094 0.449584
vt 0.246094 0.449584
vt 0.246094 0.449584
vt 0.246094 0.449584
vt 0.246094 0.449584
vt 0.246094 0.449584
vt 0.246094 0.449584
vt 0.246094 0.449584
s 1
f 74/74/1 76/76/2 73/73/3
f 75/75/4 77/77/5 74/74/1
f 76/76/2 80/80/6 79/79/7
f 77/77/5 81/81/8 80/80/6
f 16/16/9 15/15/10 10/10/11
f 17/17/12 73/73/3 16/16/9
f 18/18/13 74/74/1 17/17/12
f 2/2/14 75/75/4 18/18/13
f 75/75/4 20/20/15 78/78/16
f 20/20/15 81/81/8 78/78/16
f 81/81/8 4/4/17 22/22/18
f 80/80/6 22/22/18 23/23/19
f 79/79/7 23/23/19 24/24/20
f 13/13/21 24/24/20 9/9/22
f 14/14/23 79/79/7 13/13/21
f 73/73/3 14/14/23 15/15/10
f 83/83/24 85/85/25 82/82/26
f 84/84/27 86/86/28 83/83/24
f 85/85/25 89/89/29 88/88/30
f 86/86/28 90/90/31 89/89/29
f 24/24/20 27/27/32 9/9/22
f 23/23/19 82/82/26 24/24/20
f 22/22/18 83/83/24 23/23/19
f 4/4/17 84/84/27 22/22/18
f 84/84/27 29/29/33 87/87/34
f 29/29/33 90/90/31 87/87/34
f 90/90/31 8/8/35 31/31/36
f 89/89/29 31/31/36 32/32/37
f 88/88/30 32/32/37 33/33/38
f 25/25/39 33/33/38 11/11/40
f 26/26/41 88/88/30 25/25/39
f 82/82/26 26/26/41 27/27/32
f 92/92/42 94/94/43 91/91/44
f 93/93/45 95/95/46 92/92/42
f 94/94/43 98/98/47 97/97/48
f 95/95/46 99/99/49 98/98/47
f 33/33/38 36/36/50 11/11/40
f 32/32/37 91/91/44 33/33/38
f 31/31/36 92/92/42 32/32/37
f 8/8/35 93/93/45 31/31/36
f 93/93/45 38/38/51 96/96/52
f 38/38/51 99/99/49 96/96/52
f 99/99/49 6/6/53 40/40/54
f 98/98/47 40/40/54 41/41/55
f 97/97/48 41/41/55 42/42/56
f 34/34/57 42/42/56 12/12/58
f 35/35/59 97/97/48 34/34/57
f 91/91/44 35/35/59 36/36/50
f 101/101/60 103/103/61 100/100/62
f 102/102/63 104/104/64 101/101/60
f 103/103/61 107/107/65 106/106/66
f 104/104/64 108/108/67 107/107/65
f 42/42/56 45/45/68 12/12/58
f 41/41/55 100/100/62 42/42/56
f 40/40/54 101/101/60 41/41/55
f 6/6/53 102/102/63 40/40/54
f 102/102/63 47/47/69 105/105/70
f 47/47/69 108/108/67 105/105/70
f 108/108/67 2/2/14 18/18/13
f 107/107/65 18/18/13 17/17/12
f 106/106/66 17/17/12 16/16/9
f 43/43/71 16/16/9 10/10/11
f 44/44/72 106/106/66 43/43/71
f 100/100/62 44/44/72 45/45/68
f 109/109/73 113/113/73 112/112/73
f 111/111/73 113/113/73 110/110/73
f 113/113/73 115/115/73 112/112/73
f 113/113/73 117/117/73 116/116/73
f 3/3/74 109/109/73 49/49/75
f 54/54/76 110/110/73 109/109/73
f 52/52/77 110/110/73 53/53/78
f 7/7/79 111/111/73 52/52/77
f 57/57/80 114/114/73 111/111/73
f 114/114/73 55/55/81 117/117/73
f 117/117/73 5/5/82 60/60/83
f 116/116/73 60/60/83 59/59/84
f 116/116/73 58/58/85 115/115/73
f 115/115/73 1/1/86 51/51/87
f 112/112/73 51/51/87 50/50/88
f 49/49/75 112/112/73 50/50/88
f 118/118/89 122/122/90 121/121/91
f 120/120/92 122/122/90 119/119/93
f 122/122/90 124/124/94 121/121/91
f 122/122/90 126/126/95 125/125/96
f 8/8/35 118/118/89 37/37/97
f 30/30/98 119/119/93 118/118/89
f 28/28/99 119/119/93 29/29/33
f 4/4/17 120/120/92 28/28/99
f 21/21/100 123/123/101 120/120/92
f 123/123/101 19/19/102 126/126/95
f 126/126/95 2/2/14 48/48/103
f 125/125/96 48/48/103 47/47/69
f 125/125/96 46/46/104 124/124/94
f 124/124/94 6/6/53 39/39/105
f 121/121/91 39/39/105 38/38/51
f 37/37/97 121/121/91 38/38/51
f 127/127/106 131/131/107 130/130/108
f 129/129/109 131/131/107 128/128/110
f 130/130/108 134/134/111 133/133/112
f 132/132/113 134/134/111 131/131/107
f 3/3/74 127/127/106 63/63/114
f 50/50/88 127/127/106 49/49/75
f 50/50/88 129/129/109 128/128/110
f 1/1/86 129/129/109 51/51/87
f 64/64/115 132/132/113 129/129/109
f 65/65/116 135/135/117 132/132/113
f 66/66/118 15/15/10 135/135/117
f 135/135/117 14/14/23 134/134/111
f 133/133/112 14/14/23 13/13/21
f 61/61/119 13/13/21 9/9/22
f 62/62/120 133/133/112 61/61/119
f 63/63/114 130/130/108 62/62/120
f 136/136/121 140/140/122 139/139/123
f 138/138/124 140/140/122 137/137/125
f 139/139/123 143/143/126 142/142/127
f 141/141/128 143/143/126 140/140/122
f 7/7/79 136/136/121 69/69/129
f 53/53/78 136/136/121 52/52/77
f 53/53/78 138/138/124 137/137/125
f 3/3/74 138/138/124 54/54/76
f 63/63/114 141/141/128 138/138/124
f 62/62/120 144/144/130 141/141/128
f 61/61/119 27/27/32 144/144/130
f 144/144/130 26/26/41 143/143/126
f 142/142/127 26/26/41 25/25/39
f 67/67/131 25/25/39 11/11/40
f 68/68/132 142/142/127 67/67/131
f 69/69/129 139/139/123 68/68/132
f 145/145/133 149/149/134 148/148/135
f 147/147/136 149/149/134 146/146/137
f 148/148/135 152/152/138 151/151/139
f 150/150/140 152/152/138 149/149/134
f 5/5/82 145/145/133 72/72/141
f 56/56/142 145/145/133 55/55/81
f 56/56/142 147/147/136 146/146/137
f 7/7/79 147/147/136 57/57/80
f 69/69/129 150/150/140 147/147/136
f 68/68/132 153/153/143 150/150/140
f 67/67/131 36/36/50 153/153/143
f 153/153/143 35/35/59 152/152/138
f 151/151/139 35/35/59 34/34/57
f 70/70/144 34/34/57 12/12/58
f 71/71/145 151/151/139 70/70/144
f 72/72/141 148/148/135 71/71/145
f 154/154/146 158/158/147 157/157/148
f 156/156/149 158/158/147 155/155/150
f 157/157/148 161/161/151 160/160/152
f 159/159/153 161/161/151 158/158/147
f 1/1/86 154/154/146 64/64/115
f 59/59/84 154/154/146 58/58/85
f 59/59/84 156/156/149 155/155/150
f 5/5/82 156/156/149 60/60/83
f 72/72/141 159/159/153 156/156/149
f 71/71/145 162/162/154 159/159/153
f 70/70/144 45/45/68 162/162/154
f 162/162/154 44/44/72 161/161/151
f 160/160/152 44/44/72 43/43/71
f 66/66/118 43/43/71 10/10/11
f 65/65/116 160/160/152 66/66/118
f 64/64/115 157/157/148 65/65/116
f 74/74/1 77/77/5 76/76/2
f 75/75/4 78/78/16 77/77/5
f 76/76/2 77/77/5 80/80/6
f 77/77/5 78/78/16 81/81/8
f 16/16/9 73/73/3 15/15/10
f 17/17/12 74/74/1 73/73/3
f 18/18/13 75/75/4 74/74/1
f 2/2/14 19/19/102 75/75/4
f 75/75/4 19/19/102 20/20/15
f 20/20/15 21/21/100 81/81/8
f 81/81/8 21/21/100 4/4/17
f 80/80/6 81/81/8 22/22/18
f 79/79/7 80/80/6 23/23/19
f 13/13/21 79/79/7 24/24/20
f 14/14/23 76/76/2 79/79/7
f 73/73/3 76/76/2 14/14/23
f 83/83/24 86/86/28 85/85/25
f 84/84/27 87/87/34 86/86/28
f 85/85/25 86/86/28 89/89/29
f 86/86/28 87/87/34 90/90/31
f 24/24/20 82/82/26 27/27/32
f 23/23/19 83/83/24 82/82/26
f 22/22/18 84/84/27 83/83/24
f 4/4/17 28/28/99 84/84/27
f 84/84/27 28/28/99 29/29/33
f 29/29/33 30/30/98 90/90/31
f 90/90/31 30/30/98 8/8/35
f 89/89/29 90/90/31 31/31/36
f 88/88/30 89/89/29 32/32/37
f 25/25/39 88/88/30 33/33/38
f 26/26/41 85/85/25 88/88/30
f 82/82/26 85/85/25 26/26/41
f 92/92/42 95/95/46 94/94/43
f 93/93/45 96/96/52 95/95/46
f 94/94/43 95/95/46 98/98/47
f 95/95/46 96/96/52 99/99/49
f 33/33/38 91/91/44 36/36/50
f 32/32/37 92/92/42 91/91/44
f 31/31/36 93/93/45 92/92/42
f 8/8/35 37/37/97 93/93/45
f 93/93/45 37/37/97 38/38/51
f 38/38/51 39/39/105 99/99/49
f 99/99/49 39/39/105 6/6/53
f 98/98/47 99/99/49 40/40/54
f 97/97/48 98/98/47 41/41/55
f 34/34/57 97/97/48 42/42/56
f 35/35/59 94/94/43 97/97/48
f 91/91/44 94/94/43 35/35/59
f 101/101/60 104/104/64 103/103/61
f 102/102/63 105/105/70 104/104/64
f 103/103/61 104/104/64 107/107/65
f 104/104/64 105/105/70 108/108/67
f 42/42/56 100/100/62 45/45/68
f 41/41/55 101/101/60 100/100/62
f 40/40/54 102/102/63 101/101/60
f 6/6/53 46/46/104 102/102/63
f 102/102/63 46/46/104 47/47/69
f 47/47/69 48/48/103 108/108/67
f 108/108/67 48/48/103 2/2/14
f 107/107/65 108/108/67 18/18/13
f 106/106/66 107/107/65 17/17/12
f 43/43/71 106/106/66 16/16/9
f 44/44/72 103/103/61 106/106/66
f 100/100/62 103/103/61 44/44/72
f 109/109/73 110/110/73 113/113/73
f 111/111/73 114/114/73 113/113/73
f 113/113/73 116/116/73 115/115/73
f 113/113/73 114/114/73 117/117/73
f 3/3/74 54/54/76 109/109/73
f 54/54/76 53/53/78 110/110/73
f 52/52/77 111/111/73 110/110/73
f 7/7/79 57/57/80 111/111/73
f 57/57/80 56/56/142 114/114/73
f 114/114/73 56/56/142 55/55/81
f 117/117/73 55/55/81 5/5/82
f 116/116/73 117/117/73 60/60/83
f 116/116/73 59/59/84 58/58/85
f 115/115/73 58/58/85 1/1/86
f 112/112/73 115/115/73 51/51/87
f 49/49/75 109/109/73 112/112/73
f 118/118/89 119/119/93 122/122/90
f 120/120/92 123/123/101 122/122/90
f 122/122/90 125/125/96 124/124/94
f 122/122/90 123/123/101 126/126/95
f 8/8/35 30/30/98 118/118/89
f 30/30/98 29/29/33 119/119/93
f 28/28/99 120/120/92 119/119/93
f 4/4/17 21/21/100 120/120/92
f 21/21/100 20/20/15 123/123/101
f 123/123/101 20/20/15 19/19/102
f 126/126/95 19/19/102 2/2/14
f 125/125/96 126/126/95 48/48/103
f 125/125/96 47/47/69 46/46/104
f 124/124/94 46/46/104 6/6/53
f 121/121/91 124/124/94 39/39/105
f 37/37/97 118/118/89 121/121/91
f 127/127/106 128/128/110 131/131/107
f 129/129/109 132/132/113 131/131/107
f 130/130/108 131/131/107 134/134/111
f 132/132/113 135/135/117 134/134/111
f 3/3/74 49/49/75 127/127/106
f 50/50/88 128/128/110 127/127/106
f 50/50/88 51/51/87 129/129/109
f 1/1/86 64/64/115 129/129/109
f 64/64/115 65/65/116 132/132/113
f 65/65/116 66/66/118 135/135/117
f 66/66/118 10/10/11 15/15/10
f 135/135/117 15/15/10 14/14/23
f 133/133/112 134/134/111 14/14/23
f 61/61/119 133/133/112 13/13/21
f 62/62/120 130/130/108 133/133/112
f 63/63/114 127/127/106 130/130/108
f 136/136/121 137/137/125 140/140/122
f 138/138/124 141/141/128 140/140/122
f 139/139/123 140/140/122 143/143/126
f 141/141/128 144/144/130 143/143/126
f 7/7/79 52/52/77 136/136/121
f 53/53/78 137/137/125 136/136/121
f 53/53/78 54/54/76 138/138/124
f 3/3/74 63/63/114 138/138/124
f 63/63/114 62/62/120 141/141/128
f 62/62/120 61/61/119 144/144/130
f 61/61/119 9/9/22 27/27/32
f 144/144/130 27/27/32 26/26/41
f 142/142/127 143/143/126 26/26/41
f 67/67/131 142/142/127 25/25/39
f 68/68/132 139/139/123 142/142/127
f 69/69/129 136/136/121 139/139/123
f 145/145/133 146/146/137 149/149/134
f 147/147/136 150/150/140 149/149/134
f 148/148/135 149/149/134 152/152/138
f 150/150/140 153/153/143 152/152/138
f 5/5/82 55/55/81 145/145/133
f 56/56/142 146/146/137 145/145/133
f 56/56/142 57/57/80 147/147/136
f 7/7/79 69/69/129 147/147/136
f 69/69/129 68/68/132 150/150/140
f 68/68/132 67/67/131 153/153/143
f 67/67/131 11/11/40 36/36/50
f 153/153/143 36/36/50 35/35/59
f 151/151/139 152/152/138 35/35/59
f 70/70/144 151/151/139 34/34/57
f 71/71/145 148/148/135 151/151/139
f 72/72/141 145/145/133 148/148/135
f 154/154/146 155/155/150 158/158/147
f 156/156/149 159/159/153 158/158/147
f 157/157/148 158/158/147 161/161/151
f 159/159/153 162/162/154 161/161/151
f 1/1/86 58/58/85 154/154/146
f 59/59/84 155/155/150 154/154/146
f 59/59/84 60/60/83 156/156/149
f 5/5/82 72/72/141 156/156/149
f 72/72/141 71/71/145 159/159/153
f 71/71/145 70/70/144 162/162/154
f 70/70/144 12/12/58 45/45/68
f 162/162/154 45/45/68 44/44/72
f 160/160/152 161/161/151 44/44/72
f 66/66/118 160/160/152 43/43/71
f 65/65/116 157/157/148 160/160/152
f 64/64/115 154/154/146 157/157/148
